<?xml version="1.0" encoding="utf-8"?>
<!-- Generator: Adobe Illustrator 24.2.0, SVG Export Plug-In . SVG Version: 6.00 Build 0)  -->
<svg version="1.1" id="Capa_1" xmlns="http://www.w3.org/2000/svg" xmlns:xlink="http://www.w3.org/1999/xlink" x="0px" y="0px"
	 viewBox="0 0 512 512" style="enable-background:new 0 0 512 512;" xml:space="preserve">
<style type="text/css">
	.st0{fill:#FFFFFF;}
</style>
<g id="Solid">
	<path class="st0" d="M240,153.3v-51c18.9-5.5,35.4-17.2,46.8-33.3c1.4,7.9,0.8,16-1.7,23.6l-3.9,11c-0.5,1.4-0.6,3-0.3,4.4
		l4.5,19.9l-12.8,8.5c-1.5,1-2.6,2.5-3.2,4.2l-5.6,17L240,153.3z M248.5,224h-12.3c-0.6-3.3-1.6-6.6-3-9.7c0.3-0.7,0.7-1.4,1-2.1
		L248.5,224z M272,222.6L244.6,200h10.6c9.3,0,16.9,7.6,16.9,16.9v5.7H272z M383.3,367.4c-3.9-8.3-9.1-16-15.3-22.7V328h-16v24h-2.6
		l-14-35l-7,2.8c-4-1.2-8.1-2.2-12.2-2.9l-15.1-2.4c3-3.1,5.5-6.7,7.6-10.5h47.4l27.8,34.8v27.1C384,366.4,383.8,367,383.3,367.4z
		 M176,480v-76.3c1.2,0.7,2.4,1.3,3.7,1.8c0,0,81.8,34.1,82.1,34.2c0,0,57.5,16.3,58.2,16.3c2.7,0,5.3-1.4,6.7-3.7l20.3-31.7
		c0.2-0.3,0.4-0.7,0.6-1c1.8-4,0-8.8-4-10.6l-27.7-12.5l10.8-16.1c0.2-0.3,0.4-0.6,0.5-0.9c2-4,0.4-8.8-3.6-10.7l-16-8
		c-2.7-1.4-6-1.1-8.4,0.8l-27.8,20.8l-46.9-26.8l4.5-44.7v-0.1l7-70.8h31.9l15.9,13.1c0.2,0.1,0.3,0.3,0.5,0.4
		c10.5,7.3,15.9,20,13.8,32.6c-1.6,9-6.7,17-14.3,22.1l-6.8,4.5c-1.9,1.2-3.1,3.2-3.5,5.4c-0.7,4.4,2.3,8.5,6.6,9.2l33.5,5.4
		c4.1,0.7,8.1,1.7,12,3l10.9,27.2c1.2,3,4.2,5,7.4,5h16c1.7,0,3.3-0.5,4.6-1.5c7.4,11.8,11.4,25.5,11.4,39.4
		c0.2,19.5-7.3,38.4-20.8,52.5c-13.4,13.9-31.9,21.7-51.2,21.6L176,480L176,480z M212,366.9l56,32c2.8,1.6,6.2,1.4,8.8-0.5l28-21
		l3.5,1.7l-11,16.5c-0.2,0.4-0.5,0.8-0.6,1.2c-1.8,4,0,8.8,4,10.6l27.9,12.5l-12.1,18.9l-49.8-14.2l-80.8-33.7
		c-6-2.5-9.9-8.3-9.8-14.8V255.5c17.1-1.9,33-9.9,44.7-22.5l-7.6,76.3v0.1l-5,49.8C207.7,362.3,209.3,365.4,212,366.9z M120,189.9
		c0-16.2,7.8-31.4,21-40.8l9.7-6.9C166.5,130.8,176,112.5,176,93c0-33.6,27.1-61,60.8-61.3c0.1,0,0.2,0,0.4,0
		c26.7-1.5,38.4,12.3,42.4,18.5c-10,19.7-28.1,33.7-49.1,37.9c-3.7,0.7-6.4,4-6.4,7.8v88c0,30.9-25.1,56-56,56
		c-26.5,0-48-21.5-48-48v-2H120z"/>
</g>
</svg>
