<?xml version="1.0" encoding="utf-8"?>
<!-- Generator: Adobe Illustrator 24.2.0, SVG Export Plug-In . SVG Version: 6.00 Build 0)  -->
<svg version="1.1" id="Capa_1" xmlns="http://www.w3.org/2000/svg" xmlns:xlink="http://www.w3.org/1999/xlink" x="0px" y="0px"
	 viewBox="0 0 512 512" style="enable-background:new 0 0 512 512;" xml:space="preserve">
<style type="text/css">
	.st0{fill:#FCC69D;}
	.st1{fill:#A2000C;stroke:#000000;stroke-miterlimit:10;}
	.st2{fill:#FFFFFF;stroke:#FFFFFF;stroke-width:4;stroke-linecap:round;stroke-linejoin:round;stroke-miterlimit:10;}
</style>
<g>
	<polygon class="st0" points="-1509.1,-376.2 -1421.5,-376.2 -1461.8,-326.8 -1461.8,-326.8 	"/>
	<path class="st0" d="M-1390.6-398.6l-6.6-7.1c-10.7-11.5-25.7-18-41.4-18h-78.5v13.1c0,19.6,16,35.5,35.6,35.4l65.8-0.1
		L-1390.6-398.6z"/>
	<path class="st0" d="M-1479.6-50.8L-1479.6-50.8c16.5,13,37.3,19.2,58.2,17.5l3.2-0.3l54.9,54.9l133.9-115.5l-76-75.6L-1479.6-50.8
		z"/>
	<path class="st0" d="M-1616.1-163.5l-105.3,105.3l169.9,79.6l89.6-90l0,0c36.8-1.3,71.8-16.6,97.9-42.6l97-97
		c10.8-10.8,10.8-28.3,0-39.2l0,0c-10.8-10.8-28.3-10.8-39.2,0l-12.2,12.2l25.7-25.7c10.8-10.8,10.8-28.3,0-39.2l0,0
		c-10.8-10.8-28.3-10.8-39.2,0l-25.7,25.7l35.5-35.5c10.8-10.8,10.8-28.3,0-39.2l0,0c-10.8-10.8-28.3-10.8-39.2,0l-35.5,35.5
		l45.4-45.2c10.8-10.8,10.8-28.3,0-39.2l0,0c-10.8-10.8-28.3-10.8-39.2,0l-71.2,71.2"/>
	<path class="st0" d="M-1576.9-202.7l-27-27c-10.8-10.8-28.3-10.8-39.2,0l0,0c-10.8,10.8-10.8,28.3,0,39.2l27,27
		c10.8,10.8,28.3,10.8,39.2,0l0,0C-1566.1-174.3-1566.1-191.9-1576.9-202.7z"/>
	<path class="st0" d="M-1537.8-241.9l-40.5-40.5c-10.8-10.8-28.3-10.8-39.2,0l0,0c-10.8,10.8-10.8,28.3,0,39.2l40.5,40.5
		c10.8,10.8,28.3,10.8,39.2,0l0,0C-1527-213.5-1527-231-1537.8-241.9z"/>
	<path class="st0" d="M-1498.6-281l-50.3-50.3c-10.8-10.8-28.3-10.8-39.2,0l0,0c-10.8,10.8-10.8,28.3,0,39.2l50.3,50.3
		c10.8,10.8,28.3,10.8,39.2,0l0,0C-1487.8-252.7-1487.8-270.2-1498.6-281z"/>
	<path class="st0" d="M-1459.5-320.2l-60-60c-10.8-10.8-28.3-10.8-39.2,0l0,0c-10.8,10.8-10.8,28.3,0,39.2l60,60
		c10.8,10.8,28.3,10.8,39.2,0l0,0C-1448.7-291.8-1448.7-309.4-1459.5-320.2z"/>
</g>
<path d="M-1222.4-101.3l-24.4-24.2c-3.9-3.9-10.3-3.9-14.1,0.1c-3.9,3.9-3.9,10.3,0.1,14.1l24.4,24.2c2,1.9,4.5,2.9,7,2.9
	c2.6,0,5.1-1,7.1-3C-1218.4-91.1-1218.4-97.4-1222.4-101.3z"/>
<path d="M-1285.8-150.3L-1285.8-150.3c-3.9,3.9-3.9,10.2,0,14.2c2,2,4.5,2.9,7.1,2.9s5.1-1,7.1-2.9c3.9-3.9,3.9-10.2,0-14.1
	C-1275.5-154.2-1281.9-154.2-1285.8-150.3z"/>
<path d="M-1411.1-40.7c-2.1-2.1-5-3.1-7.9-2.9l-3.2,0.3c-14.6,1.2-29.1-2-41.7-9.1l6.4-6.5c38-2.3,73.6-18.4,100.6-45.4l97-97
	c14.7-14.7,14.7-38.6,0-53.3c-5.2-5.2-11.5-8.5-18.2-10.1c2.3-4.9,3.5-10.3,3.5-15.9c0-10.1-3.9-19.5-11-26.7
	c-5.6-5.6-12.6-9.2-20.2-10.5c4.3-13.1,1.3-28.1-9.1-38.5c-5.7-5.7-12.8-9.2-20.2-10.5c1.2-3.8,1.9-7.8,1.9-11.8
	c0-10.1-3.9-19.5-11-26.7c-7.1-7.1-16.6-11-26.7-11c-6.4,0-12.5,1.6-18,4.6l-1-1c-12.5-13.5-30.3-21.2-48.7-21.2h-78.5
	c-5.5,0-10,4.5-10,10v13.1c0,5.2,0.9,10.4,2.6,15.2c-4.5-1.9-9.4-2.9-14.5-2.9c-10.1,0-19.5,3.9-26.7,11
	c-10.4,10.4-13.4,25.4-9.1,38.5c-7.4,1.3-14.5,4.8-20.2,10.5c-7.1,7.1-11,16.6-11,26.7c0,4.1,0.7,8.1,1.9,11.8
	c-7.6,1.3-14.6,4.9-20.2,10.5c-11.5,11.5-14,28.6-7.5,42.5c-6.8,1.6-13.1,5-18.2,10.1c-14.7,14.7-14.7,38.6,0,53.3l20,20l-98.5,98.3
	c-3.9,3.9-3.9,10.2,0,14.1c2,2,4.5,2.9,7.1,2.9c2.6,0,5.1-1,7.1-2.9l99.2-99.2c5.6,3.2,12,4.9,18.6,4.9c10.1,0,19.5-3.9,26.7-11
	c7.7-7.7,11.4-18,11-28.2c0.5,0,1,0,1.5,0c9.6,0,19.3-3.7,26.7-11c7.1-7.1,11-16.6,11-26.7c0-0.5,0-1,0-1.5c0.5,0,1,0,1.5,0
	c9.7,0,19.3-3.7,26.7-11c7.1-7.1,11-16.6,11-26.7c0-0.5,0-1,0-1.5c0.5,0,1,0,1.5,0c9.7,0,19.3-3.7,26.7-11
	c13.8-13.8,14.6-35.8,2.5-50.5l66.4-66.4c3.3-3.3,7.8-5.2,12.5-5.2c4.7,0,9.2,1.8,12.5,5.2c3.3,3.3,5.2,7.8,5.2,12.5
	c0,4.7-1.8,9.2-5.2,12.5l-9.8,9.8l-35.5,35.5c-3.9,3.9-3.9,10.2,0,14.1c2,2,4.5,2.9,7.1,2.9c2.6,0,5.1-1,7.1-2.9l35.5-35.5
	c6.9-6.9,18.1-6.9,25,0c6.9,6.9,6.9,18.1,0,25l-9.8,9.8l-25.7,25.7c-3.9,3.9-3.9,10.2,0,14.1c2,2,4.5,2.9,7.1,2.9s5.1-1,7.1-2.9
	l25.7-25.7c3.3-3.3,7.8-5.2,12.5-5.2c4.7,0,9.2,1.8,12.5,5.2c3.3,3.3,5.2,7.8,5.2,12.5c0,4.7-1.8,9.2-5.2,12.5l-13.4,13.4
	l-12.6,12.6c-3.9,3.9-3.9,10.2,0,14.1c2,2,4.5,2.9,7.1,2.9c2.6,0,5.1-1,7.1-2.9l12.3-12.3c6.9-6.9,18.1-6.9,25,0
	c6.9,6.9,6.9,18.1,0,25l-97,97c-24.4,24.4-56.7,38.5-91.2,39.7c-2.5,0.1-4.9,1.1-6.7,2.9l-89.6,90c-3.9,3.9-3.9,10.2,0,14.1
	c2,1.9,4.5,2.9,7.1,2.9c2.6,0,5.1-1,7.1-2.9l65.9-66.2c16.7,10.7,36.4,15.9,56.5,14.5l51.6,51.6c2,2,4.5,2.9,7.1,2.9s5.1-1,7.1-2.9
	c3.9-3.9,3.9-10.2,0-14.1L-1411.1-40.7z M-1507.2-413.7h68.5c12.9,0,25.3,5.4,34.1,14.8l0.4,0.4l-59.7,59.7l-27.5-27.4
	c3.1,0.7,6.3,1,9.6,1c0.1,0,0.1,0,0.2,0l27.4-0.1c5.5,0,10-4.5,10-10s-4.5-10-10-10l0,0l-27.5,0.1h-0.1c-6.8,0-13.1-2.6-17.9-7.4
	c-4.8-4.8-7.5-11.2-7.5-18V-413.7L-1507.2-413.7z M-1584-170.6c-3.3,3.3-7.8,5.2-12.5,5.2c-4.7,0-9.2-1.8-12.5-5.2l-27-27
	c-6.9-6.9-6.9-18.1,0-25c3.3-3.3,7.8-5.2,12.5-5.2c4.7,0,9.2,1.8,12.5,5.2l27,27C-1577.1-188.7-1577.1-177.5-1584-170.6z
	 M-1539.7-222.3c0,4.7-1.8,9.2-5.2,12.5c-6.9,6.9-18.1,6.9-25,0l-27-27l-13.4-13.4c-6.9-6.9-6.9-18.1,0-25c3.3-3.3,7.8-5.2,12.5-5.2
	c4.7,0,9.2,1.8,12.5,5.2l40.5,40.5l0,0C-1541.5-231.4-1539.7-227-1539.7-222.3z M-1500.5-261.4c0,4.7-1.8,9.2-5.2,12.5
	c-6.9,6.9-18.1,6.9-25,0l-50.3-50.3c-3.3-3.3-5.2-7.8-5.2-12.5c0-4.7,1.8-9.2,5.2-12.5c3.4-3.4,8-5.2,12.5-5.2s9.1,1.7,12.5,5.2
	l22.9,22.9l27.4,27.4l0,0C-1502.4-270.6-1500.5-266.2-1500.5-261.4z M-1466.5-288.1c-6.9,6.9-18.1,6.9-25,0l-50.3-50.3l0,0l-9.8-9.8
	c-6.9-6.9-6.9-18.1,0-25c3.4-3.4,8-5.2,12.5-5.2s9.1,1.7,12.5,5.2l60,60c3.3,3.3,5.2,7.8,5.2,12.5
	C-1461.4-295.9-1463.2-291.4-1466.5-288.1z"/>
<rect x="-925.4" y="-773.5" class="st1" width="580" height="601"/>
<g>
	<path class="st2" d="M230.8,61.6c4.8,4.8,11.2,7.4,17.9,7.4h0.1l27.4-0.1l0,0c5.2,0,9.5,4,10,9.1c0,0.3,0,0.5,0,0.8v0.1
		c0,5.5-4.5,9.9-10,9.9l-27.4,0.1c-0.1,0-0.1,0-0.2,0c-3.3,0-6.5-0.4-9.6-1l27.5,27.5l36.6-36.6l0.9-0.9l22.3-22.3l-0.4-0.4
		c-8.8-9.4-21.2-14.8-34.1-14.8h-68.5v3.1C223.3,50.4,226,56.8,230.8,61.6z"/>
	<path class="st2" d="M444.7,303.9L444.7,303.9C444.7,303.9,444.7,303.8,444.7,303.9l-12.5-12.5L373.6,350
		c-27,27-62.6,43-100.6,45.4l-6.4,6.5c12.6,7.1,27.1,10.3,41.7,9.1l3.2-0.3c2.9-0.2,5.8,0.8,7.9,2.9l54.9,54.9
		c0.2,0.2,0.3,0.4,0.5,0.6l118.7-102.6L444.7,303.9z"/>
	<path class="st2" d="M298,371.2c23.1-6.1,44.2-18.1,61.4-35.3l21-21l76-76c6.9-6.9,6.9-18.1,0-25c-6.9-6.9-18.1-6.9-25,0
		l-12.3,12.3c-2,2-4.5,2.9-7.1,2.9s-5.1-1-7.1-2.9c-3.9-3.9-3.9-10.2,0-14.1l12.3-12.3l13.4-13.4c3.3-3.3,5.2-7.8,5.2-12.5
		s-1.8-9.2-5.2-12.5c-3.3-3.3-7.8-5.2-12.5-5.2s-9.2,1.8-12.5,5.2L380,187.1c-2,2-4.5,2.9-7.1,2.9s-5.1-1-7.1-2.9
		c-3.9-3.9-3.9-10.2,0-14.1l25.7-25.7l9.8-9.8c6.9-6.9,6.9-18.1,0-25s-18.1-6.9-25,0L340.8,148c-2,2-4.5,2.9-7.1,2.9s-5.1-1-7.1-2.9
		c-3.9-3.9-3.9-10.2,0-14.1l35.5-35.5l9.8-9.8c3.3-3.3,5.2-7.8,5.2-12.5s-1.8-9.2-5.2-12.5c-3.3-3.3-7.8-5.2-12.5-5.2
		s-9.2,1.8-12.5,5.2L280.5,130c12.1,14.8,11.3,36.7-2.5,50.5c-7.3,7.3-17,11-26.7,11c-0.5,0-1,0-1.5,0c0,0.5,0,1,0,1.5
		c0,10.1-3.9,19.5-11,26.7c-7.3,7.3-17,11-26.7,11c-0.5,0-1,0-1.5,0c0,0.5,0,1,0,1.5c0,10.1-3.9,19.5-11,26.7
		c-7.3,7.3-17,11-26.7,11c-0.5,0-1,0-1.5,0c0.4,10.2-3.3,20.4-11,28.2c-7.1,7.1-16.6,11-26.7,11c-6.6,0-13-1.7-18.6-4.9l-96.6,96.6
		l151.2,70.8c0.5-1,1.1-2,2-2.8l89.6-90c1.8-1.8,4.2-2.8,6.7-2.9C278.4,375.2,288.4,373.7,298,371.2z"/>
	<path class="st2" d="M121.3,283.4l0.2,0.2c3.3,3.3,7.8,5.2,12.5,5.2s9.2-1.8,12.5-5.2c6.9-6.9,6.9-18.1,0-25l-0.9-0.9l-26.1-26.1
		c-3.3-3.3-7.8-5.2-12.5-5.2s-9.2,1.8-12.5,5.2c-6.9,6.9-6.9,18.1,0,25L121.3,283.4z"/>
	<path class="st2" d="M133.6,217.4l25.7,25.7l1.3,1.3c6.9,6.9,18.1,6.9,25,0c3.3-3.3,5.2-7.8,5.2-12.5s-1.8-9.2-5.2-12.5l0,0l-2-2
		l-38.5-38.5c-3.3-3.3-7.8-5.2-12.5-5.2s-9.2,1.8-12.5,5.2c-6.9,6.9-6.9,18.1,0,25L133.6,217.4z"/>
	<path class="st2" d="M197.4,202.9l2.4,2.4c6.9,6.9,18.1,6.9,25,0c3.3-3.3,5.2-7.8,5.2-12.5s-1.8-9.2-5.2-12.5l0,0l-3.1-3.1
		l-24.3-24.3L174.5,130c-3.4-3.4-8-5.2-12.5-5.2s-9.1,1.7-12.5,5.2c-3.3,3.3-5.2,7.8-5.2,12.5s1.8,9.2,5.2,12.5L197.4,202.9z"/>
	<path class="st2" d="M188.7,115.8L188.7,115.8l46.8,46.8l3.5,3.5c6.9,6.9,18.1,6.9,25,0c3.3-3.3,5.2-7.8,5.2-12.5
		s-1.8-9.2-5.2-12.5l-4.2-4.2L203.9,81c-3.4-3.4-8-5.2-12.5-5.2s-9.1,1.7-12.5,5.2c-6.9,6.9-6.9,18.1,0,25L188.7,115.8z"/>
</g>
</svg>
