<?xml version="1.0" encoding="utf-8"?>
<!-- Generator: Adobe Illustrator 24.2.0, SVG Export Plug-In . SVG Version: 6.00 Build 0)  -->
<svg version="1.1" id="Capa_1" xmlns="http://www.w3.org/2000/svg" xmlns:xlink="http://www.w3.org/1999/xlink" x="0px" y="0px"
	 viewBox="0 0 321.6 359.5" style="enable-background:new 0 0 321.6 359.5;" xml:space="preserve">
<style type="text/css">
	.st0{fill:#FFFFFF;}
	.st1{fill:none;stroke:#FFFFFF;stroke-width:1.277;stroke-miterlimit:10;}
</style>
<g>
	<g>
		<path class="st0" d="M28.5,114.8c0,0,0,0.1,0,0.1l-7,27l20.2,12.1l4-12.6l-12.4-37C29.6,109.8,28.5,114.7,28.5,114.8"/>
		<path class="st1" d="M28.5,114.8c0,0,0,0.1,0,0.1l-7,27l20.2,12.1l4-12.6l-12.4-37C29.6,109.8,28.5,114.7,28.5,114.8z"/>
		<path class="st0" d="M82,359.5l4.6-94c0.1-1.4,1.3-2.5,2.7-2.5c1.3,0.1,2.4,1.1,2.4,2.5h0l5.8,93.7h27.7L125,243.4H53.3l0.2,116"
			/>
		<path class="st0" d="M0.8,243.2c-0.3,1.6-0.1,3.2,0.8,4.6c0.8,1.4,2.2,2.3,3.7,2.7c1.5,0.4,3.1,0.1,4.4-0.8
			c1.3-0.9,2.3-2.2,2.6-3.8c0-0.1,0-0.1,0-0.2l24.9-84.9l-16.7-10.2L0.8,243.2z"/>
		<path class="st1" d="M0.8,243.2c-0.3,1.6-0.1,3.2,0.8,4.6c0.8,1.4,2.2,2.3,3.7,2.7c1.5,0.4,3.1,0.1,4.4-0.8
			c1.3-0.9,2.3-2.2,2.6-3.8c0-0.1,0-0.1,0-0.2l24.9-84.9l-16.7-10.2L0.8,243.2z"/>
		<path class="st0" d="M125.9,91.1c-0.1,0-17.7-6.1-17.7-6.1c-2.1,6.3-9.8,10.8-19.3,10.8h-0.1c-5.1,0-10-1.3-13.7-3.8
			c-2.8-1.9-4.8-4.3-5.7-6.9c0,0-17.6,6.2-17.7,6.2c-5.9,1.3-10.3,4.2-13.6,7.4l14.6,43c0,0,0.1,0.5,0.1,0.8l0.2,93.6h72.1
			l-0.2-93.8c0-0.6,0.1-0.8,0.1-0.8l14.4-43.1C136.2,95.2,131.8,92.4,125.9,91.1"/>
		<path class="st1" d="M125.9,91.1c-0.1,0-17.7-6.1-17.7-6.1c-2.1,6.3-9.8,10.8-19.3,10.8h-0.1c-5.1,0-10-1.3-13.7-3.8
			c-2.8-1.9-4.8-4.3-5.7-6.9c0,0-17.6,6.2-17.7,6.2c-5.9,1.3-10.3,4.2-13.6,7.4l14.6,43c0,0,0.1,0.5,0.1,0.8l0.2,93.6h72.1
			l-0.2-93.8c0-0.6,0.1-0.8,0.1-0.8l14.4-43.1C136.2,95.2,131.8,92.4,125.9,91.1z"/>
		<path class="st0" d="M149.3,114.6c0,0,0-0.1,0-0.1c-0.1-0.4-1.2-5.2-4.7-10.3l-12.3,37.1l4,12.5l20.1-12.2L149.3,114.6z"/>
		<path class="st1" d="M149.3,114.6c0,0,0-0.1,0-0.1c-0.1-0.4-1.2-5.2-4.7-10.3l-12.3,37.1l4,12.5l20.1-12.2L149.3,114.6z"/>
		<path class="st0" d="M244.2,71.4L244.2,71.4c2.4,0,3.8-0.6,4.3-0.9c0.3-1.1,1.2-1.9,2.4-1.9h0c1.4,0,2.5,1.1,2.5,2.4
			c0,3.1-3.8,5.2-9.2,5.2h0c-2.1,0-4.1-0.3-5.7-1c-3-1.2-3.5-3.2-3.5-4.2c0-1.3,1.1-2.4,2.5-2.4h0c1.2,0,2.2,0.8,2.4,1.9
			C240.4,70.9,241.9,71.4,244.2,71.4 M252.8,57.6c0.9-0.9,2.6-0.9,3.5,0c0.5,0.4,0.7,1.1,0.7,1.7c0,0.6-0.3,1.3-0.7,1.7
			c-0.5,0.5-1.1,0.7-1.8,0.7c-0.6,0-1.3-0.3-1.8-0.7c-0.5-0.5-0.7-1.1-0.7-1.7C252.1,58.7,252.4,58,252.8,57.6 M233.8,61.8
			c-0.6,0-1.3-0.3-1.8-0.7c-0.5-0.5-0.7-1.1-0.7-1.7c0-0.6,0.3-1.3,0.7-1.7c0.9-0.9,2.6-0.9,3.5,0c0.5,0.5,0.7,1.1,0.7,1.7
			c0,0.6-0.3,1.3-0.7,1.7C235.1,61.5,234.4,61.8,233.8,61.8 M226.5,54.1l0,4.2c0,13.6,8,24.7,17.7,24.7h0c9.7,0,17.6-11.1,17.6-24.7
			l0-4.2c-3.5-0.1-9.7-0.9-14.3-5c-1.4-1.2-2.5-2.6-3.4-4.2c-0.9,1.6-2,3-3.4,4.2C236.1,53.2,230,54,226.5,54.1"/>
		<path class="st1" d="M244.2,71.4L244.2,71.4c2.4,0,3.8-0.6,4.3-0.9c0.3-1.1,1.2-1.9,2.4-1.9h0c1.4,0,2.5,1.1,2.5,2.4
			c0,3.1-3.8,5.2-9.2,5.2h0c-2.1,0-4.1-0.3-5.7-1c-3-1.2-3.5-3.2-3.5-4.2c0-1.3,1.1-2.4,2.5-2.4h0c1.2,0,2.2,0.8,2.4,1.9
			C240.4,70.9,241.9,71.4,244.2,71.4z M252.8,57.6c0.9-0.9,2.6-0.9,3.5,0c0.5,0.4,0.7,1.1,0.7,1.7c0,0.6-0.3,1.3-0.7,1.7
			c-0.5,0.5-1.1,0.7-1.8,0.7c-0.6,0-1.3-0.3-1.8-0.7c-0.5-0.5-0.7-1.1-0.7-1.7C252.1,58.7,252.4,58,252.8,57.6z M233.8,61.8
			c-0.6,0-1.3-0.3-1.8-0.7c-0.5-0.5-0.7-1.1-0.7-1.7c0-0.6,0.3-1.3,0.7-1.7c0.9-0.9,2.6-0.9,3.5,0c0.5,0.5,0.7,1.1,0.7,1.7
			c0,0.6-0.3,1.3-0.7,1.7C235.1,61.5,234.4,61.8,233.8,61.8z M226.5,54.1l0,4.2c0,13.6,8,24.7,17.7,24.7h0
			c9.7,0,17.6-11.1,17.6-24.7l0-4.2c-3.5-0.1-9.7-0.9-14.3-5c-1.4-1.2-2.5-2.6-3.4-4.2c-0.9,1.6-2,3-3.4,4.2
			C236.1,53.2,230,54,226.5,54.1z"/>
		<path class="st0" d="M75.7,82.2l-0.4,0.1c0.5,1.3,1.7,2.6,3.4,3.6c2.7,1.6,6.2,2.5,10.1,2.5c0,0,0,0,0.1,0
			c6.5,0,12.2-2.7,13.5-6.1l-0.4-0.1c-1-0.3-1.6-1.2-1.6-2.1h0l0-5c-3.5,2.2-7.5,3.4-11.5,3.4c-4,0-8-1.2-11.5-3.3l0,5h0
			C77.3,81,76.7,81.9,75.7,82.2"/>
		<path class="st1" d="M75.7,82.2l-0.4,0.1c0.5,1.3,1.7,2.6,3.4,3.6c2.7,1.6,6.2,2.5,10.1,2.5c0,0,0,0,0.1,0
			c6.5,0,12.2-2.7,13.5-6.1l-0.4-0.1c-1-0.3-1.6-1.2-1.6-2.1h0l0-5c-3.5,2.2-7.5,3.4-11.5,3.4c-4,0-8-1.2-11.5-3.3l0,5h0
			C77.3,81,76.7,81.9,75.7,82.2z"/>
		<path class="st0" d="M214.1,99.6l16.3-4l0-12.8c-6-5.5-10-14.9-10-25.6c0,0,0-7.2,0-7.3c0.1-1.4,1.4-2.4,2.7-2.3
			c0.1,0,8.2,0.7,13.2-4c2.8-2.6,4.2-6.5,4.2-11.6l0-15.4c-4.5,0.3-14.2,1.6-20.7,8.1c-4.5,4.5-6.8,10.7-6.8,18.6
			c0,0.7-0.3,1.3-0.7,1.8c-0.1,0.1-0.1,0.1-0.2,0.2c-0.2,0.2-7.3,6.9-7.2,28.1l0.1,30.2C207.5,101.8,210.6,100.5,214.1,99.6"/>
		<path class="st1" d="M214.1,99.6l16.3-4l0-12.8c-6-5.5-10-14.9-10-25.6c0,0,0-7.2,0-7.3c0.1-1.4,1.4-2.4,2.7-2.3
			c0.1,0,8.2,0.7,13.2-4c2.8-2.6,4.2-6.5,4.2-11.6l0-15.4c-4.5,0.3-14.2,1.6-20.7,8.1c-4.5,4.5-6.8,10.7-6.8,18.6
			c0,0.7-0.3,1.3-0.7,1.8c-0.1,0.1-0.1,0.1-0.2,0.2c-0.2,0.2-7.3,6.9-7.2,28.1l0.1,30.2C207.5,101.8,210.6,100.5,214.1,99.6z"/>
		<path class="st0" d="M71.3,22.3c0.9-1.8,1.3-4.3,1.3-7.1c0-1.3,1.1-2.4,2.5-2.4h0c1.4,0,2.5,1.1,2.5,2.4c0,1.9,4.3,4.6,11,4.6
			c6.7,0,11-2.8,11-4.7c0-1.3,1.1-2.4,2.5-2.4h0c1.4,0,2.5,1.1,2.5,2.4c0,2.8,0.5,5.3,1.4,7.1c0.9,1.8,2.2,3,4.1,3.5l0-12.4
			c0-0.2,0-4.1-3.4-7.4c-3.6-3.5-9.6-5.3-17.9-5.3h-0.1c-8.3,0-14.4,1.8-18,5.4c-3.4,3.4-3.4,7.2-3.4,7.4l0,12.4
			C69.1,25.3,70.4,24.2,71.3,22.3"/>
		<path class="st1" d="M71.3,22.3c0.9-1.8,1.3-4.3,1.3-7.1c0-1.3,1.1-2.4,2.5-2.4h0c1.4,0,2.5,1.1,2.5,2.4c0,1.9,4.3,4.6,11,4.6
			c6.7,0,11-2.8,11-4.7c0-1.3,1.1-2.4,2.5-2.4h0c1.4,0,2.5,1.1,2.5,2.4c0,2.8,0.5,5.3,1.4,7.1c0.9,1.8,2.2,3,4.1,3.5l0-12.4
			c0-0.2,0-4.1-3.4-7.4c-3.6-3.5-9.6-5.3-17.9-5.3h-0.1c-8.3,0-14.4,1.8-18,5.4c-3.4,3.4-3.4,7.2-3.4,7.4l0,12.4
			C69.1,25.3,70.4,24.2,71.3,22.3z"/>
		<path class="st0" d="M76.1,41.6c0.9-0.9,2.6-0.9,3.6,0c0.5,0.5,0.7,1.1,0.7,1.8c0,0.7-0.3,1.3-0.7,1.8c-0.5,0.5-1.1,0.7-1.8,0.7
			c-0.7,0-1.3-0.3-1.8-0.7c-0.5-0.5-0.7-1.1-0.7-1.8C75.4,42.8,75.7,42.1,76.1,41.6 M82.3,55.5L82.3,55.5c1.2,0,2.2,0.8,2.5,1.9
			c0.5,0.3,1.9,0.8,4.1,0.8h0c2.2,0,3.6-0.5,4.1-0.8c0.3-1.1,1.3-1.9,2.4-1.9h0c1.4,0,2.5,1.1,2.5,2.5c0,1-0.4,3-3.4,4.2
			c-1.5,0.6-3.5,1-5.6,1c0,0,0,0,0,0c-5.3,0-9-2.1-9-5.2C79.7,56.7,80.9,55.5,82.3,55.5 M97.8,41.6c0.9-0.9,2.6-0.9,3.6,0
			c0.5,0.5,0.7,1.1,0.7,1.8c0,0.7-0.3,1.3-0.7,1.8c-0.5,0.5-1.1,0.7-1.8,0.7c-0.7,0-1.3-0.3-1.8-0.7c-0.5-0.5-0.7-1.1-0.7-1.8
			C97.1,42.7,97.4,42.1,97.8,41.6 M88.8,71.1c5.5,0,10.9-3.1,14.9-8.6c4.2-5.8,6.5-13.5,6.5-21.8l0-7.2c-3.9-0.7-6.9-2.9-8.6-6.6
			c-0.4-0.8-0.7-1.8-1-2.7c-2.9,1.9-7,3.1-11.8,3.1h-0.1c-4.8,0-8.9-1.1-11.8-3c-0.3,1-0.6,1.9-1,2.7c-1.8,3.7-4.7,5.9-8.6,6.6
			l0,7.2c0,8.2,2.4,16,6.6,21.7C77.9,68.1,83.3,71.1,88.8,71.1"/>
		<path class="st1" d="M76.1,41.6c0.9-0.9,2.6-0.9,3.6,0c0.5,0.5,0.7,1.1,0.7,1.8c0,0.7-0.3,1.3-0.7,1.8c-0.5,0.5-1.1,0.7-1.8,0.7
			c-0.7,0-1.3-0.3-1.8-0.7c-0.5-0.5-0.7-1.1-0.7-1.8C75.4,42.8,75.7,42.1,76.1,41.6z M82.3,55.5L82.3,55.5c1.2,0,2.2,0.8,2.5,1.9
			c0.5,0.3,1.9,0.8,4.1,0.8h0c2.2,0,3.6-0.5,4.1-0.8c0.3-1.1,1.3-1.9,2.4-1.9h0c1.4,0,2.5,1.1,2.5,2.5c0,1-0.4,3-3.4,4.2
			c-1.5,0.6-3.5,1-5.6,1c0,0,0,0,0,0c-5.3,0-9-2.1-9-5.2C79.7,56.7,80.9,55.5,82.3,55.5z M97.8,41.6c0.9-0.9,2.6-0.9,3.6,0
			c0.5,0.5,0.7,1.1,0.7,1.8c0,0.7-0.3,1.3-0.7,1.8c-0.5,0.5-1.1,0.7-1.8,0.7c-0.7,0-1.3-0.3-1.8-0.7c-0.5-0.5-0.7-1.1-0.7-1.8
			C97.1,42.7,97.4,42.1,97.8,41.6z M88.8,71.1c5.5,0,10.9-3.1,14.9-8.6c4.2-5.8,6.5-13.5,6.5-21.8l0-7.2c-3.9-0.7-6.9-2.9-8.6-6.6
			c-0.4-0.8-0.7-1.8-1-2.7c-2.9,1.9-7,3.1-11.8,3.1h-0.1c-4.8,0-8.9-1.1-11.8-3c-0.3,1-0.6,1.9-1,2.7c-1.8,3.7-4.7,5.9-8.6,6.6
			l0,7.2c0,8.2,2.4,16,6.6,21.7C77.9,68.1,83.3,71.1,88.8,71.1z"/>
		<path class="st0" d="M245.8,227c-0.4,0.2-0.8,0.3-1.3,0.3c-0.4,0-0.9-0.1-1.3-0.3c-28.1-15.9-26.6-31.9-25.5-36.4
			c1.7-6.8,7.5-11.7,13.9-11.7c4.9,0,9.3,2.8,12.4,7.9c0.2,0.3,0.7,0.3,0.9,0c3.1-5.1,7.5-8,12.4-8c6.3,0,12.2,4.9,13.9,11.6
			C272.3,195,273.9,211,245.8,227 M270.7,168.4c-0.8-0.6-1.3-1.6-1.1-2.6c0.2-1,0.9-1.8,1.9-2.1c5.3-1.3,8.6-4.4,9.8-9.2
			c1.8-7-1.4-15-5.5-18.7c-0.5-0.5-0.9-1.2-0.9-1.9V108c-0.6-0.2-10.1-2.5-10.1-2.5v26c0,1.4-1.2,2.6-2.6,2.6h-36
			c-1.4,0-2.6-1.2-2.6-2.6v-25.9c0,0-9.5,2.3-10.1,2.5v25.9c0,0.7-0.3,1.4-0.8,1.9c-4.6,4.2-7,12.4-5.4,18.7
			c1.2,4.8,4.6,7.9,9.9,9.2c1,0.2,1.8,1,2,2.1c0.2,1-0.2,2-1.1,2.6c-0.1,0.1-15.5,11.2-23.8,39.5c-14,47.4-16.2,132.8-16.5,148.9
			h134.1c-0.4-16.1-3-101.8-17.1-149.1C286.2,179.4,270.9,168.5,270.7,168.4"/>
		<path class="st1" d="M245.8,227c-0.4,0.2-0.8,0.3-1.3,0.3c-0.4,0-0.9-0.1-1.3-0.3c-28.1-15.9-26.6-31.9-25.5-36.4
			c1.7-6.8,7.5-11.7,13.9-11.7c4.9,0,9.3,2.8,12.4,7.9c0.2,0.3,0.7,0.3,0.9,0c3.1-5.1,7.5-8,12.4-8c6.3,0,12.2,4.9,13.9,11.6
			C272.3,195,273.9,211,245.8,227z M270.7,168.4c-0.8-0.6-1.3-1.6-1.1-2.6c0.2-1,0.9-1.8,1.9-2.1c5.3-1.3,8.6-4.4,9.8-9.2
			c1.8-7-1.4-15-5.5-18.7c-0.5-0.5-0.9-1.2-0.9-1.9V108c-0.6-0.2-10.1-2.5-10.1-2.5v26c0,1.4-1.2,2.6-2.6,2.6h-36
			c-1.4,0-2.6-1.2-2.6-2.6v-25.9c0,0-9.5,2.3-10.1,2.5v25.9c0,0.7-0.3,1.4-0.8,1.9c-4.6,4.2-7,12.4-5.4,18.7
			c1.2,4.8,4.6,7.9,9.9,9.2c1,0.2,1.8,1,2,2.1c0.2,1-0.2,2-1.1,2.6c-0.1,0.1-15.5,11.2-23.8,39.5c-14,47.4-16.2,132.8-16.5,148.9
			h134.1c-0.4-16.1-3-101.8-17.1-149.1C286.2,179.4,270.9,168.5,270.7,168.4z"/>
		<path class="st1" d="M256.9,184.5c-2.9,0-5.6,1.8-7.7,5.2c-1,1.6-2.8,2.6-4.7,2.6c-1.9,0-3.7-1-4.7-2.6c-2-3.3-4.8-5.1-7.7-5.1
			c-3.9,0-7.5,3.1-8.6,7.4c-0.9,3.4-1.8,15.2,21,28.4c22.8-13.2,21.8-25.1,20.9-28.5C264.4,187.6,260.7,184.5,256.9,184.5z"/>
		<path class="st0" d="M177.5,242.8l-20.1-92.5l-16.7,10.3l25.2,84.7c0,0.1,0,0.1,0,0.2c0.3,1.6,1.3,2.9,2.6,3.8
			c1.3,0.9,2.9,1.1,4.5,0.8c2.9-0.7,4.9-3.5,4.6-6.6C177.6,243.2,177.6,243,177.5,242.8"/>
		<path class="st1" d="M177.5,242.8l-20.1-92.5l-16.7,10.3l25.2,84.7c0,0.1,0,0.1,0,0.2c0.3,1.6,1.3,2.9,2.6,3.8
			c1.3,0.9,2.9,1.1,4.5,0.8c2.9-0.7,4.9-3.5,4.6-6.6C177.6,243.2,177.6,243,177.5,242.8z"/>
		<path class="st0" d="M296.5,130.6c-0.1-0.6-3.2-13.6-14.3-19.9v22.3c5.2,5.6,7.8,15.2,5.9,22.8c-1.2,5.1-4.3,8.9-8.7,11.2
			c5.2,5.1,15.1,17.1,21.3,38.7c3.4,11.8,6.1,25.9,8.3,40.8c0,0.1,0,0.1,0.1,0.2c0.7,3.3,4,5.4,7.2,4.6c1.5-0.4,2.8-1.3,3.7-2.7
			c0.8-1.4,1.1-3,0.8-4.6L296.5,130.6z"/>
		<path class="st1" d="M296.5,130.6c-0.1-0.6-3.2-13.6-14.3-19.9v22.3c5.2,5.6,7.8,15.2,5.9,22.8c-1.2,5.1-4.3,8.9-8.7,11.2
			c5.2,5.1,15.1,17.1,21.3,38.7c3.4,11.8,6.1,25.9,8.3,40.8c0,0.1,0,0.1,0.1,0.2c0.7,3.3,4,5.4,7.2,4.6c1.5-0.4,2.8-1.3,3.7-2.7
			c0.8-1.4,1.1-3,0.8-4.6L296.5,130.6z"/>
		<path class="st0" d="M252,43.6c5.1,4.7,13.1,3.9,13.2,3.9c1.4-0.1,2.6,0.9,2.7,2.3c0,0.1,0,7.3,0,7.3c0,10.6-3.9,20.1-9.9,25.6
			l0,12.8l16.3,4c3.6,0.9,6.7,2.2,9.3,3.9l-0.1-30.2c0-21.2-7.2-27.9-7.4-28.1c-0.5-0.5-0.9-1.2-0.9-2c0-7.8-2.3-14.1-6.9-18.5
			c-6.6-6.5-16.3-7.8-20.8-8l0,15.4C247.8,37.1,249.2,41,252,43.6"/>
		<path class="st1" d="M252,43.6c5.1,4.7,13.1,3.9,13.2,3.9c1.4-0.1,2.6,0.9,2.7,2.3c0,0.1,0,7.3,0,7.3c0,10.6-3.9,20.1-9.9,25.6
			l0,12.8l16.3,4c3.6,0.9,6.7,2.2,9.3,3.9l-0.1-30.2c0-21.2-7.2-27.9-7.4-28.1c-0.5-0.5-0.9-1.2-0.9-2c0-7.8-2.3-14.1-6.9-18.5
			c-6.6-6.5-16.3-7.8-20.8-8l0,15.4C247.8,37.1,249.2,41,252,43.6z"/>
		<path class="st0" d="M234.8,102.5l-5.1,1.2v23.2h29.2v-23.3l-5.2-1.2c-1.1-0.3-1.9-1.3-1.9-2.4l0-11c-2.4,1.1-4.9,1.8-7.6,1.8h0
			c-2.7,0-5.2-0.6-7.6-1.8l0,11C236.7,101.2,235.9,102.2,234.8,102.5"/>
		<path class="st1" d="M234.8,102.5l-5.1,1.2v23.2h29.2v-23.3l-5.2-1.2c-1.1-0.3-1.9-1.3-1.9-2.4l0-11c-2.4,1.1-4.9,1.8-7.6,1.8h0
			c-2.7,0-5.2-0.6-7.6-1.8l0,11C236.7,101.2,235.9,102.2,234.8,102.5z"/>
		<path class="st0" d="M188.5,202.4c6-20.8,15.7-32.4,20.8-37.3c-4.4-2.2-7.4-5.9-8.6-10.8c-1.8-7.3,0.6-16.5,5.7-21.9v-21.5
			c-11,6.2-14,19.1-14,19.2l-15.7,73.1l5.7,26.1C184.2,219.7,186.2,210.5,188.5,202.4"/>
		<path class="st1" d="M188.5,202.4c6-20.8,15.7-32.4,20.8-37.3c-4.4-2.2-7.4-5.9-8.6-10.8c-1.8-7.3,0.6-16.5,5.7-21.9v-21.5
			c-11,6.2-14,19.1-14,19.2l-15.7,73.1l5.7,26.1C184.2,219.7,186.2,210.5,188.5,202.4z"/>
		<path class="st0" d="M88.8,62.8C88.8,62.8,88.8,62.8,88.8,62.8c2,0,3.8-0.3,5.3-0.8c2.8-1,3.2-2.5,3.2-3.4c0-1.1-1.1-2-2.4-2h0
			c-1.1,0-2,0.6-2.3,1.5c-0.5,0.2-1.8,0.7-3.8,0.7h0c-2,0-3.3-0.4-3.8-0.6c-0.3-0.9-1.2-1.5-2.3-1.5h0c-1.3,0-2.4,0.9-2.4,2
			C80.3,61.1,83.8,62.8,88.8,62.8"/>
		<path class="st1" d="M88.8,62.8C88.8,62.8,88.8,62.8,88.8,62.8c2,0,3.8-0.3,5.3-0.8c2.8-1,3.2-2.5,3.2-3.4c0-1.1-1.1-2-2.4-2h0
			c-1.1,0-2,0.6-2.3,1.5c-0.5,0.2-1.8,0.7-3.8,0.7h0c-2,0-3.3-0.4-3.8-0.6c-0.3-0.9-1.2-1.5-2.3-1.5h0c-1.3,0-2.4,0.9-2.4,2
			C80.3,61.1,83.8,62.8,88.8,62.8z"/>
		<path class="st0" d="M77.4,44.5c0.4,0,0.8-0.2,1.2-0.5c0.3-0.3,0.5-0.7,0.5-1.1c0-0.4-0.2-0.8-0.5-1.1c-0.6-0.6-1.7-0.6-2.3,0
			c-0.3,0.3-0.5,0.7-0.5,1.1c0,0.4,0.2,0.8,0.5,1.1C76.6,44.3,77,44.5,77.4,44.5"/>
		<path class="st1" d="M77.4,44.5c0.4,0,0.8-0.2,1.2-0.5c0.3-0.3,0.5-0.7,0.5-1.1c0-0.4-0.2-0.8-0.5-1.1c-0.6-0.6-1.7-0.6-2.3,0
			c-0.3,0.3-0.5,0.7-0.5,1.1c0,0.4,0.2,0.8,0.5,1.1C76.6,44.3,77,44.5,77.4,44.5z"/>
		<path class="st0" d="M100.1,44.5c0.4,0,0.8-0.2,1.2-0.5c0.3-0.3,0.5-0.7,0.5-1.1c0-0.4-0.2-0.8-0.5-1.1c-0.6-0.6-1.7-0.6-2.3,0
			c-0.3,0.3-0.5,0.7-0.5,1.1c0,0.4,0.2,0.8,0.5,1.1C99.3,44.3,99.7,44.5,100.1,44.5"/>
		<path class="st1" d="M100.1,44.5c0.4,0,0.8-0.2,1.2-0.5c0.3-0.3,0.5-0.7,0.5-1.1c0-0.4-0.2-0.8-0.5-1.1c-0.6-0.6-1.7-0.6-2.3,0
			c-0.3,0.3-0.5,0.7-0.5,1.1c0,0.4,0.2,0.8,0.5,1.1C99.3,44.3,99.7,44.5,100.1,44.5z"/>
		<path class="st0" d="M237.8,69.5L237.8,69.5c-1.3,0-2.4,0.9-2.4,2c0,0.8,0.4,2.4,3.3,3.4c1.5,0.5,3.4,0.8,5.4,0.8h0
			c5.1,0,8.7-1.8,8.7-4.3c0-1.1-1.1-2-2.4-2h0c-1.1,0-2.1,0.7-2.3,1.6c-0.5,0.3-1.9,0.7-4.1,0.7h0c-2.2,0-3.6-0.5-4-0.7
			C239.9,70.2,239,69.5,237.8,69.5"/>
		<path class="st1" d="M237.8,69.5L237.8,69.5c-1.3,0-2.4,0.9-2.4,2c0,0.8,0.4,2.4,3.3,3.4c1.5,0.5,3.4,0.8,5.4,0.8h0
			c5.1,0,8.7-1.8,8.7-4.3c0-1.1-1.1-2-2.4-2h0c-1.1,0-2.1,0.7-2.3,1.6c-0.5,0.3-1.9,0.7-4.1,0.7h0c-2.2,0-3.6-0.5-4-0.7
			C239.9,70.2,239,69.5,237.8,69.5z"/>
		<path class="st0" d="M234.8,58.5c0-0.4-0.2-0.8-0.5-1.1c-0.6-0.6-1.7-0.6-2.3,0c-0.3,0.3-0.5,0.7-0.5,1.1c0,0.4,0.2,0.8,0.5,1.1
			c0.3,0.3,0.7,0.5,1.1,0.5c0.4,0,0.9-0.2,1.2-0.5C234.6,59.3,234.8,58.9,234.8,58.5"/>
		<path class="st1" d="M234.8,58.5c0-0.4-0.2-0.8-0.5-1.1c-0.6-0.6-1.7-0.6-2.3,0c-0.3,0.3-0.5,0.7-0.5,1.1c0,0.4,0.2,0.8,0.5,1.1
			c0.3,0.3,0.7,0.5,1.1,0.5c0.4,0,0.9-0.2,1.2-0.5C234.6,59.3,234.8,58.9,234.8,58.5z"/>
		<path class="st0" d="M255.2,60.1c0.4,0,0.9-0.2,1.2-0.5c0.3-0.3,0.5-0.7,0.5-1.1c0-0.4-0.2-0.9-0.5-1.1c-0.6-0.6-1.7-0.6-2.3,0
			c-0.3,0.3-0.5,0.7-0.5,1.1c0,0.4,0.2,0.8,0.5,1.1C254.4,59.9,254.8,60.1,255.2,60.1"/>
		<path class="st1" d="M255.2,60.1c0.4,0,0.9-0.2,1.2-0.5c0.3-0.3,0.5-0.7,0.5-1.1c0-0.4-0.2-0.9-0.5-1.1c-0.6-0.6-1.7-0.6-2.3,0
			c-0.3,0.3-0.5,0.7-0.5,1.1c0,0.4,0.2,0.8,0.5,1.1C254.4,59.9,254.8,60.1,255.2,60.1z"/>
	</g>
</g>
</svg>
