<?xml version="1.0" encoding="utf-8"?>
<!-- Generator: Adobe Illustrator 24.2.0, SVG Export Plug-In . SVG Version: 6.00 Build 0)  -->
<svg version="1.1" id="Capa_1" xmlns="http://www.w3.org/2000/svg" xmlns:xlink="http://www.w3.org/1999/xlink" x="0px" y="0px"
	 viewBox="0 0 512 512" style="enable-background:new 0 0 512 512;" xml:space="preserve">
<style type="text/css">
	.st0{fill:#A2000C;stroke:#000000;stroke-miterlimit:10;}
	.st1{fill:#FFCDAC;}
	.st2{fill:#7D9BFF;}
	.st3{fill:#78D2FA;}
	.st4{fill:#FFB487;}
	.st5{fill:#BEBEBE;}
	.st6{fill:#F5B955;}
	.st7{fill:#FFFFFF;stroke:#FFFFFF;stroke-width:8;stroke-linecap:round;stroke-linejoin:round;stroke-miterlimit:10;}
</style>
<rect x="-2077.2" y="-352" class="st0" width="580" height="601"/>
<g>
	<path class="st1" d="M-1937.3,81l-32.6-34.7c-10.5-11.2-16.3-25.9-16.3-41.2v-123c0-11-7.6-20.5-18.4-22.9l0,0
		c-14.7-3.3-28.6,7.9-28.6,22.9V37.1c0,18.1,5.6,35.8,16.1,50.6l17.8,25.1l42.7,60.1l15.1,21.2h113.7l-16.4-78.1
		c-7.4-35.2-28.2-66.1-58.1-86.2l-35-23.5c-10.4-7-24.4-5.2-32.8,4.2l0,0c-9.3,10.5-9,26.2,0.6,36.4c19.2,20.3,47.7,50.6,47.7,50.6"
		/>
	<path class="st1" d="M-1637.1,81l32.6-34.7c10.5-11.2,16.3-25.9,16.3-41.2v-123c0-11,7.6-20.5,18.4-22.9l0,0
		c14.7-3.3,28.6,7.9,28.6,22.9V37.1c0,18.1-5.6,35.8-16.1,50.6l-17.8,25.1l-42.7,60.1l-15.1,21.2h-113.7l16.4-78.1
		c7.4-35.2,28.2-66.1,58.1-86.2l35-23.5c10.4-7,24.4-5.2,32.8,4.2l0,0c9.3,10.5,9,26.2-0.6,36.4c-19.2,20.3-47.7,50.6-47.7,50.6"/>
</g>
<g>
	<path class="st2" d="M-1763.1-96.2c4.8-5,10.9-8.6,18-10.3l25.5-6.1l0,0l0,0v-15.6h31.2v15.6l0,0l25.5,6.1
		c16.7,4,28.4,18.9,28.4,36v18.7h-56.5L-1763.1-96.2z"/>
	<path class="st2" d="M-1811.2-96.2c-4.8-5-10.9-8.6-18-10.3l-25.5-6.1l0,0l0,0v-15.6h-31.2v15.6l0,0l-25.5,6.1
		c-16.7,4-28.4,18.9-28.4,36v18.7h56.5L-1811.2-96.2z"/>
</g>
<path class="st3" d="M-1808.9-96.8l-35.6,8.5c-23.2,5.6-39.5,26.3-39.5,50.1v36h193.6v-35.9c0-23.8-16.4-44.6-39.6-50.1l-35.5-8.5"
	/>
<path class="st4" d="M-1765.5-118.5v21.8l-21.7,49.4l-21.7-49.4v-21.7"/>
<path class="st1" d="M-1738.7-193.3v30.1c0,26.7-21.7,48.4-48.4,48.4l0,0l0,0c-26.7,0-48.4-21.7-48.4-48.4v-30.1"/>
<path class="st5" d="M-1787.1-243.9L-1787.1-243.9c-26.7,0-48.4,21.7-48.4,48.4v11.7h23.7c15.7,0,30.7-7,40.8-19l0,0l32.4,19v-11.7
	C-1738.7-222.2-1760.4-243.9-1787.1-243.9z"/>
<path class="st6" d="M-1835.6-175.1v-8.4c0-19.2-15.6-34.8-34.8-34.8l0,0c-19.2,0-34.8,15.6-34.8,34.8v8.4h24
	c15,0,29.7-4.1,42.6-11.8l0,0"/>
<path class="st1" d="M-1835.6-182v21.6c0,19.2-15.6,34.8-34.8,34.8l0,0l0,0c-19.2,0-34.8-15.6-34.8-34.8V-182"/>
<path class="st6" d="M-1738.7-175.1v-8.4c0-19.2,15.6-34.8,34.8-34.8l0,0c19.2,0,34.8,15.6,34.8,34.8v8.4h-24
	c-15,0-29.7-4.1-42.6-11.8l0,0"/>
<path class="st1" d="M-1738.7-181.9v21.6c0,19.2,15.6,34.8,34.8,34.8l0,0l0,0c19.2,0,34.8-15.6,34.8-34.8v-21.6"/>
<path d="M-1948.5,167.1c-3.2-4.5-9.4-5.6-13.9-2.4c-4.5,3.2-5.6,9.4-2.4,13.9l15.1,21.2c1.9,2.7,5,4.2,8.2,4.2c2,0,4-0.6,5.8-1.8
	c4.5-3.2,5.6-9.4,2.4-13.9L-1948.5,167.1z"/>
<path d="M-1834.4,114c-8-38-30.1-70.8-62.3-92.5l-35-23.5c-14-9.4-32.9-7.4-44.6,4.6v-120.5c0-15.8-10.8-29.3-26.2-32.7
	c-10-2.2-20.2,0.2-28.2,6.6c-8,6.4-12.5,15.9-12.5,26.1V37.1c0,20.3,6.2,39.8,18,56.4l17.8,25.1c2,2.7,5,4.2,8.2,4.2
	c2,0,4-0.6,5.8-1.8c4.5-3.2,5.6-9.4,2.4-13.9l-17.8-25.1c-9.3-13.2-14.3-28.7-14.3-44.8v-155.1c0-4.1,1.8-7.9,5-10.5
	c3.2-2.6,7.3-3.5,11.4-2.6c6.2,1.4,10.6,6.8,10.6,13.2v123c0,17.4,6.4,34,18,46.9c0.5,0.6,1,1.2,1.6,1.8c6.6,7,14.4,15.3,21.8,23.1
	l10.3,11c0,0,0.1,0.1,0.1,0.1c8.8,9.4,15.3,16.3,15.4,16.4c3.8,4,10.1,4.2,14.1,0.4s4.2-10.1,0.4-14.1c-0.2-0.2-11.9-12.7-25.3-26.9
	l-22.9-24.4c-0.1-0.1-0.1-0.1-0.2-0.2c-5.4-6.4-5.3-15.8,0.3-22.1c5-5.6,13.4-6.7,19.7-2.5l35,23.5c27.8,18.7,47,47.1,53.9,80
	l16.4,78.1c1,4.7,5.1,7.9,9.8,7.9c0.7,0,1.4-0.1,2.1-0.2c5.4-1.1,8.9-6.4,7.7-11.8L-1834.4,114z"/>
<path d="M-1969.2,137.9c-3.2-4.5-9.5-5.5-13.9-2.3s-5.5,9.5-2.3,13.9l0.1,0.1c2,2.7,5,4.2,8.1,4.2c2,0,4-0.6,5.8-1.9
	C-1967,148.7-1965.9,142.5-1969.2,137.9L-1969.2,137.9z"/>
<path d="M-1543.8-144c-8-6.4-18.2-8.8-28.2-6.6c-15.4,3.4-26.2,16.9-26.2,32.7V2.6c-11.7-12-30.6-14-44.6-4.6l-35,23.5
	c-32.2,21.6-54.3,54.5-62.3,92.5l-16.4,78.1c-1.1,5.4,2.3,10.7,7.7,11.8c0.7,0.1,1.4,0.2,2.1,0.2c4.6,0,8.8-3.2,9.8-7.9l16.4-78.1
	c6.9-32.8,26-61.2,53.9-80l35-23.5c6.2-4.2,14.7-3.1,19.7,2.5c5.6,6.4,5.7,15.7,0.3,22.1c-0.1,0.1-0.1,0.1-0.2,0.2
	c0,0-48,51.1-48.2,51.3c-3.8,4-3.6,10.4,0.4,14.1c4,3.8,10.4,3.6,14.1-0.4c0.1-0.1,41-43.6,47.6-50.6c0.5-0.6,1.1-1.2,1.6-1.8
	c11.6-12.9,18-29.5,18-46.9v-123c0-6.4,4.3-11.8,10.6-13.2c4-0.9,8.1,0.1,11.4,2.6c3.2,2.6,5,6.4,5,10.5V37.1
	c0,16.1-4.9,31.6-14.3,44.8l-75.6,106.4c-3.2,4.5-2.1,10.7,2.4,13.9c1.8,1.2,3.8,1.8,5.8,1.8c3.1,0,6.2-1.5,8.2-4.2l75.6-106.4
	c11.8-16.6,18-36.1,18-56.4v-155.1C-1531.2-128.1-1535.8-137.7-1543.8-144z"/>
<path d="M-1690.5,7.8c5.5,0,10-4.5,10-10v-35.9c0-1.2,0-2.5-0.1-3.7h46.1c5.5,0,10-4.5,10-10v-18.7c0-21.8-14.8-40.6-36.1-45.7
	l-17.8-4.3v-3.2c11.6-8.1,19.1-21.5,19.1-36.7v-23.1c0-24.7-20.1-44.8-44.8-44.8c-11.1,0-21.2,4.1-29,10.7
	c-8.7-21.3-29.7-36.4-54.1-36.4c-24.5,0-45.4,15.1-54.1,36.5c-7.8-6.7-18-10.8-29.1-10.8c-24.7,0-44.8,20.1-44.8,44.8v1.5v21.6
	c0,15.2,7.6,28.6,19.1,36.7v3.2l-17.8,4.3c-21.2,5.1-36.1,23.9-36.1,45.7v18.7c0,5.5,4.5,10,10,10h46c-0.1,1.2-0.1,2.4-0.1,3.7v36
	c0,5.5,4.5,10,10,10h60.1c5.5,0,10-4.5,10-10s-4.5-10-10-10h-10.3v-20.7c0-5.5-4.5-10-10-10s-10,4.5-10,10v20.7h-19.8v-26
	c0-19.3,13.1-35.9,31.9-40.4l27.4-6.6l18.4,41.8c1.6,3.6,5.2,6,9.2,6h0c4,0,7.6-2.3,9.2-6l18.3-41.7l27.4,6.5
	c18.8,4.5,31.9,21.1,31.9,40.4v25.9h-19.8v-20.7c0-5.5-4.5-10-10-10c-5.5,0-10,4.5-10,10v20.7h-11.3c-5.5,0-10,4.5-10,10
	s4.5,10,10,10H-1690.5z M-1818.9-113.5c-2.6-1.1-5.2-2-8-2.7l-17.9-4.3v-3.1c3.2-2.3,6.1-4.9,8.7-7.9c4.5,6.9,10.3,12.8,17.2,17.2
	V-113.5z M-1895.1-160.3v-4.8h14c12.2,0,24.3-2.4,35.6-7.1v11.8c0,13.6-11.1,24.8-24.8,24.8S-1895.1-146.7-1895.1-160.3z
	 M-1825.5-163.3v-10.6h13.7c15.9,0,30.9-5.9,42.5-16.4l20.6,12.1v16.3c-0.8,20.5-17.7,36.9-38.4,36.9
	C-1808.3-124.8-1825.5-142.1-1825.5-163.3z M-1755.5-113.5v-0.7c6.9-4.5,12.8-10.4,17.3-17.3c2.5,3,5.4,5.6,8.6,7.8v3.1l-17.9,4.3
	C-1750.2-115.6-1752.9-114.6-1755.5-113.5z M-1728.7-160.3v-1.5c0-0.5,0-1,0-1.5v-8.9c11.2,4.6,23.3,7.1,35.5,7.1h14v4.8
	c0,13.6-11.1,24.8-24.8,24.8S-1728.7-146.7-1728.7-160.3z M-1704-208.2c13.1,0,23.9,10.2,24.7,23.1h-13.9c-11.7,0-23.2-2.8-33.5-8.2
	C-1722.9-202.1-1714.2-208.2-1704-208.2z M-1825.5-195.5c0-21.2,17.2-38.4,38.4-38.4c19.1,0,35,14,37.9,32.3l-16.8-9.9
	c-4.2-2.5-9.6-1.5-12.7,2.2c-8.2,9.8-20.3,15.4-33.1,15.4h-13.7L-1825.5-195.5L-1825.5-195.5z M-1870.4-208.2
	c10.2,0,18.9,6.2,22.7,14.9c-10.3,5.4-21.8,8.2-33.5,8.2h-13.9C-1894.2-198-1883.5-208.2-1870.4-208.2z M-1846.8-98
	c-19.7,4.7-35.1,18.4-42.5,36.2h-40.5v-8.7c0-12.5,8.5-23.3,20.7-26.3l25.5-6.1c4.5-1.1,7.7-5.1,7.7-9.7v-3.4
	c1.8,0.2,3.7,0.4,5.6,0.4c1.9,0,3.7-0.1,5.6-0.4v2.9c0,0.1,0,0.3,0,0.4c0,3.3,1.6,6.5,4.6,8.4c1.1,0.7,2.3,1.2,3.6,1.4l14.9,3.6
	L-1846.8-98z M-1787.2-72.2l-11.7-26.7v-7.1c3.8,0.8,7.8,1.2,11.8,1.2c4,0,7.9-0.4,11.6-1.2v7.2L-1787.2-72.2z M-1727.7-98l-5-1.2
	l15-3.6c1.2-0.2,2.5-0.7,3.6-1.4c3-1.9,4.6-5.1,4.6-8.4c0-0.1,0-0.2,0-0.2v-3.1c1.8,0.2,3.7,0.4,5.6,0.4c1.9,0,3.8-0.1,5.6-0.4v3.4
	c0,4.6,3.2,8.7,7.7,9.7l25.5,6.1c12.2,2.9,20.7,13.7,20.7,26.3v8.7h-40.7C-1692.5-79.6-1708-93.3-1727.7-98z"/>
<path d="M-1787.2-12.2c-2.6,0-5.2,1.1-7.1,2.9c-1.9,1.9-2.9,4.4-2.9,7.1c0,2.6,1.1,5.2,2.9,7.1c1.9,1.9,4.4,2.9,7.1,2.9
	c2.6,0,5.2-1.1,7.1-2.9c1.9-1.9,2.9-4.4,2.9-7.1c0-2.6-1.1-5.2-2.9-7.1C-1782-11.1-1784.6-12.2-1787.2-12.2z"/>
<path d="M-1787.2-272.9c5.5,0,10-4.5,10-10v-15c0-5.5-4.5-10-10-10s-10,4.5-10,10v15C-1797.2-277.4-1792.8-272.9-1787.2-272.9z"/>
<path d="M-1838.2-261.1c2,2,4.5,2.9,7.1,2.9c2.6,0,5.1-1,7.1-2.9c3.9-3.9,3.9-10.2,0-14.1l-10.5-10.5c-3.9-3.9-10.2-3.9-14.1,0
	c-3.9,3.9-3.9,10.2,0,14.1L-1838.2-261.1z"/>
<path d="M-1743.5-258c2.6,0,5.1-1,7.1-2.9l10.4-10.4c3.9-3.9,3.9-10.2,0-14.1c-3.9-3.9-10.2-3.9-14.1,0l-10.4,10.4
	c-3.9,3.9-3.9,10.2,0,14.1C-1748.6-259-1746-258-1743.5-258z"/>
<rect x="-1716.3" y="528" class="st0" width="580" height="601"/>
<path class="st7" d="M402.2,457.2l75.6-106.4c9.3-13.2,14.3-28.7,14.3-44.8V151c0-4.1-1.8-7.9-5-10.5c-3.2-2.6-7.3-3.5-11.4-2.6
	c-6.2,1.4-10.6,6.8-10.6,13.2v123c0,17.4-6.4,34-18,46.9c-0.5,0.6-1,1.2-1.6,1.8c-6.6,7-47.5,50.5-47.6,50.6
	c-3.8,4-10.1,4.2-14.1,0.4c-4-3.8-4.2-10.1-0.4-14.1c0.2-0.2,48.2-51.3,48.2-51.3c0.1-0.1,0.1-0.1,0.2-0.2
	c5.4-6.4,5.3-15.7-0.3-22.1c-5-5.6-13.5-6.7-19.7-2.5l-35,23.5c-27.8,18.7-47,47.1-53.9,80l-16,76h93.5
	C400.3,461,400.9,459,402.2,457.2z"/>
<path class="st7" d="M109.8,457.2L34.3,350.8C24.9,337.6,20,322.1,20,306V151c0-4.1,1.8-7.9,5-10.5c3.2-2.6,7.3-3.5,11.4-2.6
	c6.2,1.4,10.6,6.8,10.6,13.2v123c0,17.4,6.4,34,18,46.9c0.5,0.6,1,1.2,1.6,1.8c6.6,7,47.5,50.5,47.6,50.6c3.8,4,10.1,4.2,14.1,0.4
	c4-3.8,4.2-10.1,0.4-14.1c-0.2-0.2-48.2-51.3-48.2-51.3c-0.1-0.1-0.1-0.1-0.2-0.2c-5.4-6.4-5.3-15.7,0.3-22.1
	c5-5.6,13.5-6.7,19.7-2.5l35,23.5c27.8,18.7,47,47.1,53.9,80l16,76h-93.5C111.7,461,111.1,459,109.8,457.2z"/>
<path class="st7" d="M339.3,153.3c-1.9,0-3.7-0.1-5.6-0.4v3.1c0,0.1,0,0.2,0,0.2c0,3.3-1.6,6.5-4.6,8.4c-1.1,0.7-2.4,1.2-3.6,1.4
	l-15,3.6l5,1.2c19.7,4.7,35.2,18.4,42.5,36.2h40.7v-8.7c0-12.5-8.5-23.3-20.7-26.3l-25.5-6.1c-4.5-1.1-7.7-5.1-7.7-9.7V153
	C343,153.2,341.2,153.3,339.3,153.3z"/>
<path class="st7" d="M201.5,169.7l-14.9-3.6c-1.2-0.2-2.4-0.7-3.6-1.4c-3-1.9-4.6-5.1-4.6-8.4c0-0.1,0-0.3,0-0.4V153
	c-1.8,0.2-3.7,0.4-5.6,0.4c-1.9,0-3.8-0.1-5.6-0.4v3.4c0,4.6-3.2,8.7-7.7,9.7l-25.5,6.1c-12.2,2.9-20.7,13.7-20.7,26.3v8.7h40.5
	c7.4-17.7,22.8-31.5,42.5-36.2L201.5,169.7z"/>
<path class="st7" d="M291.7,256.7H303V236c0-5.5,4.5-10,10-10c5.5,0,10,4.5,10,10v20.7h19.8v-25.9c0-9-2.9-17.5-7.9-24.4l-27.4-16.8
	l-24-5.7l-18.3,41.7c-1.6,3.6-5.2,6-9.2,6h0c-4,0-7.6-2.3-9.2-6l-18.4-41.8l-23.9,5.7l-27.6,17c-4.9,6.9-7.8,15.3-7.8,24.3v26H189
	V236c0-5.5,4.5-10,10-10c5.5,0,10,4.5,10,10v20.7h10.3c5.5,0,10,4.5,10,10c0,0,0,0,0,0H246c0-2.6,1.1-5.2,2.9-7.1
	c1.9-1.9,4.4-2.9,7.1-2.9c2.6,0,5.2,1.1,7.1,2.9c1.9,1.9,2.9,4.4,2.9,7.1h15.7C281.7,261.2,286.1,256.7,291.7,256.7z"/>
<path class="st7" d="M310.9,190.4l-3.3-0.8l27.4,16.8C329.3,198.6,320.9,192.7,310.9,190.4z"/>
<path class="st7" d="M177,206.5l27.6-17l-3.5,0.8C191.1,192.7,182.7,198.6,177,206.5z"/>
<path class="st7" d="M267.7,162.9c-3.8,0.8-7.6,1.2-11.6,1.2c-4,0-8-0.4-11.8-1.2v7.1l0.9,2.1l21.6,0l0.9-2.1V162.9z"/>
<polygon class="st7" points="256,196.7 266.8,172.1 245.2,172.1 "/>
<path class="st7" d="M294.5,107.1V90.8l-20.6-12.1c-11.6,10.5-26.6,16.4-42.5,16.4h-13.7v10.6c0,21.2,17.2,38.4,38.4,38.4
	C276.8,144,293.7,127.6,294.5,107.1z"/>
<path class="st7" d="M264.5,59.6c3.1-3.7,8.5-4.7,12.7-2.2l16.8,9.9C291.1,49,275.2,35,256.1,35c-21.2,0-38.4,17.2-38.4,38.4l0,1.7
	h13.7C244.2,75.1,256.3,69.4,264.5,59.6z"/>
<path class="st7" d="M195.6,75.6c-3.8-8.8-12.6-14.9-22.7-14.9c-13.1,0-23.9,10.2-24.7,23.1h13.9C173.8,83.8,185.3,81,195.6,75.6z"
	/>
<path class="st7" d="M197.6,108.6V96.7c-11.2,4.7-23.3,7.1-35.6,7.1h-14v4.8c0,13.7,11.1,24.8,24.8,24.8S197.6,122.2,197.6,108.6z"
	/>
<path class="st7" d="M364,83.8c-0.8-12.9-11.6-23.1-24.7-23.1c-10.2,0-18.9,6.2-22.7,15c10.3,5.4,21.8,8.2,33.5,8.2H364z"/>
<path class="st7" d="M314.5,105.6c0,0.5,0,1,0,1.5v1.5c0,13.7,11.1,24.8,24.8,24.8s24.8-11.1,24.8-24.8v-4.8h-14
	c-12.2,0-24.3-2.4-35.5-7.1V105.6z"/>
</svg>
